<?xml version="1.0" encoding="utf-8"?>
<!-- Generator: Adobe Illustrator 21.1.0, SVG Export Plug-In . SVG Version: 6.00 Build 0)  -->
<svg version="1.1" id="ad_free" xmlns="http://www.w3.org/2000/svg" xmlns:xlink="http://www.w3.org/1999/xlink" x="0px" y="0px"
	 viewBox="0 0 96 96" style="enable-background:new 0 0 96 96;" xml:space="preserve">
<style type="text/css">
	.st0{fill:#CCCCCC;}
	.st1{fill:#FFFFFF;}
	.st2{fill:#FF0000;}
</style>
<g>
	<g>
		<path class="st0" d="M70.9,6.2H26.1c0,0-7.8,0-7.8,7.8s0,69.8,0,69.8s-0.8,6,6,6s46.6,0,46.6,0s6.9-0.8,6.9-6.9
			c0-6.1,0-68.5,0-68.5S78.7,6.2,70.9,6.2z"/>
		<path class="st1" d="M67.7,11.9H29c0,0-6.7,0-6.7,6.2s0,55.3,0,55.3s-0.7,4.7,5.1,4.7s40.3,0,40.3,0s5.9-0.7,5.9-5.4
			s0-54.2,0-54.2S74.5,11.9,67.7,11.9z"/>
		<circle class="st1" cx="48" cy="83.8" r="4.2"/>
	</g>
	<polygon class="st2" points="48.2,20.3 28.8,67.2 67.2,67.2 	"/>
	<polygon class="st1" points="60.7,63.8 34.4,63.8 48.2,26.3 	"/>
	<g>
		<rect x="46" y="36.7" class="st2" width="4" height="16.9"/>
		<rect x="46" y="58.6" class="st2" width="4" height="3.6"/>
	</g>
</g>
</svg>
