<?xml version="1.0" encoding="utf-8"?>
<!-- Generator: Adobe Illustrator 21.1.0, SVG Export Plug-In . SVG Version: 6.00 Build 0)  -->
<svg version="1.1" id="Layer_1" xmlns="http://www.w3.org/2000/svg" xmlns:xlink="http://www.w3.org/1999/xlink" x="0px" y="0px"
	 viewBox="0 0 128 128" style="enable-background:new 0 0 128 128;" xml:space="preserve">
<style type="text/css">
	.st0{fill:#E6E6E6;}
	.st1{fill:#FFFFFF;}
</style>
<path class="st0" d="M106.8,105.2H22.3c-6.6,0-12-5.4-12-12V38.8c0-6.6,5.4-12,12-12h84.4c6.6,0,12,5.4,12,12v54.3
	C118.8,99.8,113.4,105.2,106.8,105.2z"/>
<rect x="61.7" y="105.2" class="st0" width="5" height="13"/>
<rect x="51.3" y="118.1" class="st0" width="25.7" height="2"/>
<path class="st1" d="M101.7,97.3H28c-6.6,0-12-5.4-12-12V43.7c0-6.6,5.4-12,12-12h73.7c6.6,0,12,5.4,12,12v41.6
	C113.7,91.9,108.3,97.3,101.7,97.3z"/>
</svg>
