<?xml version="1.0" encoding="utf-8"?>
<!-- Generator: Adobe Illustrator 21.1.0, SVG Export Plug-In . SVG Version: 6.00 Build 0)  -->
<svg version="1.1" xmlns="http://www.w3.org/2000/svg" xmlns:xlink="http://www.w3.org/1999/xlink" x="0px" y="0px"
	 viewBox="0 0 500 562" style="enable-background:new 0 0 500 562;" xml:space="preserve">
<style type="text/css">
	.st0{fill:#82347B;}
	.st1{fill:#CC48BA;}
	.st2{fill:#7C7C7C;}
	.st3{fill:#F487E0;}
</style>
<g id="Layer_2">
</g>
<g id="Layer_4">
</g>
<g id="la">
</g>
<g id="earphones">
	<g>
		<path class="st0" d="M152.5,174.8l-7,7.8l26,128.2l11.2,2.1C206.5,211.6,152.5,174.8,152.5,174.8z"/>
		<path class="st0" d="M267.2,337.3l27.8-0.6l39.6-43.6l12.1-48.6C346.7,244.5,273.9,268.9,267.2,337.3z"/>
		<path class="st1" d="M129.1,177.6c0,0,12.7-6.9,23.4-2.9c0,0,7.3,91.8,30.1,138c0,0-14.5,14.2-25.5,8.7c0,0-11.5-14.4-16.5-30.8
			l-10-8.8l-11.6-33.1l-4.1-38.8l0.6-32.8L129.1,177.6z"/>
		<path class="st1" d="M367.8,268.1c0,0-3.4-15-21.2-23.6c0,0-26.6,62.7-79.5,92.8c0,0,0,0.5,0.1,1.2c0.2,0.4,0.3,0.9,0.4,1.4
			c0-0.2,0.1,0,0.2,0.9c0.1,0.3,0.3,0.7,0.5,1.1c0.4,0.8,0.7,1.5,1,2.3c3,5.2,10,11.6,26.6,12.3c0,0,13-8,21.9-13.4
			c8.9-5.3,39.4-33,39.4-33l13.4-21.8L367.8,268.1z"/>
		<path class="st2" d="M356,250.6c0,0-39.4,66.4-84.6,96.5c0,0-0.1,1.1,8.2,6.5c8.3,5.4,71.8-64,82.8-96.3L356,250.6z"/>
		<path class="st2" d="M166.7,322.5l5.5-2.3c-30-49-26.6-146.6-26.6-146.6l-10.4,1.6c-0.6,94.4,25,141.6,28.5,147.7
			C164.7,322.6,165.7,322.5,166.7,322.5z"/>
		<path class="st3" d="M310.5,343.1c0,0,64.8-43.3,57.3-75c0,0,61-82.9,18.1-144.3c0,0-85.7-119.5-212.5-53.1
			c0,0-51.1,32.4-44.3,106.9c0,0-24.4,0.5,11.5,113.1c0,0-6.5,21.5-21,4.7l-17.4-84.8l6.7-27c0,0-18.2-125.9,82.1-152.1
			c0,0,106.2-32.5,191,47.7c0,0,79.5,78.9,7.2,192L385,301l-60.4,56.6C324.5,357.6,302.2,363.1,310.5,343.1z"/>
		<path class="st1" d="M140.9,60.5l16.9,24.3c0,0-5.2,5-9.9,12.9l-18.5-22.3C129.4,75.3,135.7,65.6,140.9,60.5z"/>
		<path class="st1" d="M399.3,155l17.1-8c0,0,0.4-3-3.9-14.6l-17.3,8.6C395.2,141,397.8,144.7,399.3,155z"/>
	</g>
</g>
</svg>
