<?xml version="1.0" encoding="utf-8"?>
<!-- Generator: Adobe Illustrator 21.1.0, SVG Export Plug-In . SVG Version: 6.00 Build 0)  -->
<svg version="1.1" id="Layer_2" xmlns="http://www.w3.org/2000/svg" xmlns:xlink="http://www.w3.org/1999/xlink" x="0px" y="0px"
	 viewBox="0 0 64 65" style="enable-background:new 0 0 64 65;" xml:space="preserve">
<style type="text/css">
	.st0{fill:#02B7CD;}
	.st1{fill:#FFFFFF;}
</style>
<path class="st0" d="M53,1.5H10.2c0,0-9,0.5-9,9s0,44,0,44s1.4,8.8,8.8,8.8s43.4,0,43.4,0s9.6-0.6,9.6-9.6s0-42.2,0-42.2
	S62.9,1.5,53,1.5z"/>
<path class="st1" d="M50.8,14.8H11.1c0,0-4.4,0.9-4.4,4.4s0,26.6,0,26.6s0.5,4.5,4.5,4.5s40.7,0,40.7,0S56,49,56,46.2S56,20,56,20
	S56,14.8,50.8,14.8z"/>
<path class="st0" d="M13.8,17.7H49l-16.7,17c0,0-0.8,0.9-1.6,0C29.9,33.9,13.8,17.7,13.8,17.7z"/>
<path class="st0" d="M10.2,19v26.3c0,0,0.5,1.4,1.3,1.5c0.8,0.1,13.3-13.3,13.3-13.3L10.2,19z"/>
<path class="st0" d="M53,19v24.8c0,0-0.4,1.3-1.3,1.3c-0.9,0.1-12.5-12.5-12.5-12.5L53,19z"/>
<path class="st0" d="M27,36.1L15.7,47.4h32.6L36.9,36l-3.6,3.6c0,0-1.3,1.3-2.5,0L27,36.1z"/>
</svg>
