<?xml version="1.0" encoding="utf-8"?>
<!-- Generator: Adobe Illustrator 21.1.0, SVG Export Plug-In . SVG Version: 6.00 Build 0)  -->
<svg version="1.1" id="Layer_2" xmlns="http://www.w3.org/2000/svg" xmlns:xlink="http://www.w3.org/1999/xlink" x="0px" y="0px"
	 viewBox="0 0 64 65" style="enable-background:new 0 0 64 65;" xml:space="preserve">
<style type="text/css">
	.st0{fill:#02B7CD;}
	.st1{fill:#FFFFFF;}
</style>
<path class="st0" d="M52.9,1.8H10.1c0,0-9,0.5-9,9s0,44,0,44s1.4,8.8,8.8,8.8s43.4,0,43.4,0s9.6-0.6,9.6-9.6s0-42.2,0-42.2
	S62.8,1.8,52.9,1.8z"/>
<path class="st1" d="M34.9,50h-7V32.8h-3.6v-6h3.6V22c0,0-0.1-6.6,6.6-6.6s5.9,0,5.9,0v6h-3.7c0,0-1.7,0-1.7,1.2s0,4.2,0,4.2h5.4
	l-0.6,5.9h-4.9V50z"/>
</svg>
