<?xml version="1.0" encoding="utf-8"?>
<!-- Generator: Adobe Illustrator 21.1.0, SVG Export Plug-In . SVG Version: 6.00 Build 0)  -->
<svg version="1.1" id="Layer_1" xmlns="http://www.w3.org/2000/svg" xmlns:xlink="http://www.w3.org/1999/xlink" x="0px" y="0px"
	 viewBox="0 0 1530 672" style="enable-background:new 0 0 1530 672;" xml:space="preserve">
<style type="text/css">
	.st0{fill:#BEE2CB;}
	.st1{fill:#353C98;}
	.st2{fill:#FAC3B4;}
	.st3{fill:#EFE1B6;}
	.st4{fill:#DF4646;}
	.st5{fill:#A1CAD3;}
	.st6{fill:#FBC4B4;}
</style>
<path class="st0" d="M240.5,37.1L160.1,79c0,0-14.8,4.4-7.9,20.7c6.9,16.3,37.7,130,37.7,130s9.9,33.4-27.8,46.6
	c0,0-27.1,15.6-44.7-15.8c0,0-11.7-30.9,18.3-42.6l23.2-12.3c0,0,8.6-6.6,4.6-15.6c-4.1-9-44.2-142.9-44.2-142.9s-6.9-16.3,9.8-22.8
	l110.9-58.9c0,0,13.8-7.8,17.3,4.2c3.6,12,58.8,196.8,58.8,196.8s4.5,28.2-21.2,39.9c-25.8,11.8-43.1,8-51.6-10.9
	c-8.5-18.9,2.5-38.2,22.2-47.2c19.7-8.9,26.6-11.8,21.8-27.6c-4.8-15.8-26.3-86-26.3-86S258.7,24.9,240.5,37.1z"/>
<path class="st1" d="M236.9,342.4c0,0-7.3-21.6-22.1-13.9L68.9,524c0,0-61.8-70.3-100.6-20.9s63.3,108.2,98.5,66.4l115.8-149.9
	c0,0,42.7,48.3,11.3,96.2s-68,54.3-68,54.3s52.9,2,100.2-61.2c0,0,16.8-30.2-5.8-99.5C220.2,409.4,207.8,381.6,236.9,342.4z"/>
<path class="st2" d="M478.7,438.2L381,479.7c0,0-17.6,3.8-11.1,23.4c6.5,19.7,32.1,155.3,32.1,155.3s8.5,39.9-36.7,51.9
	c0,0-33.1,15.7-50.8-22.6c0,0-10.8-37.1,25.3-48l28.2-12.2c0,0,10.7-6.9,6.8-17.8c-3.9-10.9-38.5-171-38.5-171s-6.6-19.7,13.5-25.7
	l135-58.6c0,0,16.8-7.8,19.9,6.5s50.6,235.3,50.6,235.3s2.7,33.3-28.5,44.7c-31.2,11.4-51.1,5.4-59.3-17.4
	c-8.2-22.8,6.4-44.4,30.3-53c23.9-8.6,32.2-11.3,28-30.2c-4.1-18.9-22.8-102.9-22.8-102.9S501.1,425.7,478.7,438.2z"/>
<path class="st3" d="M486.5-16.4c0,0-22.8-0.2-20.3,16.3l136.9,201.8c0,0-86.6,35.4-52.7,88.3s123-24.4,95-71.3L541.5,60.2
	c0,0,59.6-24.6,94.7,20.8s29.1,82,29.1,82s19.2-49.4-25.1-114.7c0,0-23.1-25.8-95.9-27C544.3,21.2,514,23.9,486.5-16.4z"/>
<path class="st4" d="M1014.3,141l-96.5-34.4c0,0-15-8.9-23.2,9.4c-8.2,18.3-78.8,131.3-78.8,131.3s-20,33.9-60,12.9
	c0,0-33.8-10.5-21.3-49.3c0,0,16.6-33.4,49.4-17.6l28,9.8c0,0,12.1,2.1,16.5-8.2c4.3-10.3,84.5-146.6,84.5-146.6s8.2-18.3,26.4-9.4
	l134.2,46.6c0,0,17.1,5.4,9.9,17.6c-7.2,12.2-117.9,200.2-117.9,200.2s-19.9,25.4-49.5,13.1s-39.8-29.6-30.7-51.2
	s33.6-27.3,56.2-17.8c22.6,9.5,30.2,13,39.7-3.1c9.5-16.1,51.1-88,51.1-88S1038.4,146.8,1014.3,141z"/>
<path class="st5" d="M807.3,385.4c0,0-13.4-11.6-20.2-0.6l-21.2,188.1c0,0-69-22.9-75.6,25.4c-6.7,48.3,84.8,47.7,92,5.9L801,458.4
	c0,0,47.5,15.6,45.3,60c-2.2,44.4-24.2,63-24.2,63s36.3-19.4,43.1-80.3c0,0-0.6-26.8-42.9-64.4C822.4,436.8,803.2,423.1,807.3,385.4
	z"/>
<path class="st0" d="M1118.3,404.3l-79.9,64.1c0,0-15.4,8.1-4.2,24.7c11.2,16.6,70.4,136,70.4,136s18.4,34.8-20.5,57.8
	c0,0-26.7,23.3-53.1-7.7c0,0-19.8-31.7,11-51.3l23.1-18.7c0,0,8.1-9.3,1.6-18.4S986.1,442,986.1,442s-11.3-16.6,5.9-27.4l110.1-89.8
	c0,0,13.6-11.7,20.2,0.8c6.6,12.5,108.6,205.4,108.6,205.4s11.2,30.2-14.8,49s-46.1,18.4-59.7-0.7c-13.6-19.1-5.6-43,14.3-57.2
	c19.9-14.3,26.9-18.9,18.2-35.4c-8.8-16.5-48.1-89.7-48.1-89.7S1135.9,386.8,1118.3,404.3z"/>
<path class="st1" d="M1245.7-23.2c0,0-22.2-5.4-23.5,11.2l86.8,227.9c0,0-92.5,14.6-71.6,73.8s125.3,4.6,108.8-47.6L1281.7,64
	c0,0,63.6-10.2,87.3,42s9.5,86.5,9.5,86.5s30.1-43.6,2-117.4c0,0-16.5-30.4-87.1-48.4C1293.3,26.7,1263.3,22.3,1245.7-23.2z"/>
<path class="st6" d="M1526.6,320.2c0,0-11.9-19.5-24.6-8.6l-99,222.9c0,0-75.9-54.8-102.8,1.9c-26.9,56.7,85.7,91.5,110.8,42.9
	l79.6-171.9c0,0,52.3,37.6,32.4,91.3s-54.2,68-54.2,68s52.1-9.8,84.1-81.9c0,0,9.7-33.2-27.7-95.7
	C1525.2,389.1,1506.9,364.8,1526.6,320.2z"/>
</svg>
