<?xml version="1.0" encoding="utf-8"?>
<!-- Generator: Adobe Illustrator 21.1.0, SVG Export Plug-In . SVG Version: 6.00 Build 0)  -->
<svg version="1.1" id="highaudio" xmlns="http://www.w3.org/2000/svg" xmlns:xlink="http://www.w3.org/1999/xlink" x="0px" y="0px"
	 viewBox="0 0 96 96" style="enable-background:new 0 0 96 96;" xml:space="preserve">
<style type="text/css">
	.st0{fill:#FFF800;}
</style>
<g>
	<path d="M45.7,68.8c0,0-22.5-8.4-27.1,12.2s35.1,5.9,33.9-6.9c-1.1-12.9-2.3-39.2-2.3-39.2s5.7,6.9,24.8,0c0,0,6.5-4.6,15.6,0
		c0,0-6.1-14.1-23.3-14.1s-26.7-16-26.7-16L45.7,68.8z"/>
	<polygon class="st0" points="28.2,5 35.4,18.6 50.5,16 39.8,27 47,40.5 33.2,33.7 22.6,44.7 24.7,29.6 11,22.8 26.1,20.2 	"/>
</g>
</svg>
