<?xml version="1.0" encoding="utf-8"?>
<!-- Generator: Adobe Illustrator 21.1.0, SVG Export Plug-In . SVG Version: 6.00 Build 0)  -->
<svg version="1.1" id="Layer_1" xmlns="http://www.w3.org/2000/svg" xmlns:xlink="http://www.w3.org/1999/xlink" x="0px" y="0px"
	 viewBox="0 0 1530 672" style="enable-background:new 0 0 1530 672;" xml:space="preserve">
<style type="text/css">
	.st0{fill:#353C98;}
	.st1{fill:#FAC3B4;}
	.st2{fill:#EFE1B6;}
	.st3{fill:#DF4646;}
	.st4{fill:#A1CAD3;}
	.st5{fill:#BEE2CB;}
	.st6{fill:#FBC4B4;}
	.st7{fill:#363E97;}
</style>
<path class="st0" d="M1515.5,395.1c0,0-10.5-20.3-23.9-10.3l-114.4,215.3c0,0-71.8-60-102.7-5.3c-30.8,54.7,79,97.3,107.5,50.6
	l91.5-165.8c0,0,49.6,41.2,25.9,93.4c-23.7,52.2-58.9,64-58.9,64s52.6-6.1,89.7-75.8c0,0,12-32.4-20.9-97.4
	C1509.3,463.8,1492.8,438.3,1515.5,395.1z"/>
<path class="st1" d="M1111.7,448.7l-97.7,41.5c0,0-17.6,3.8-11.1,23.4S1035,669,1035,669s8.5,39.9-36.7,51.9
	c0,0-33.1,15.7-50.8-22.6c0,0-10.8-37.1,25.3-48l28.2-12.2c0,0,10.7-6.9,6.8-17.8c-3.9-10.9-38.5-171-38.5-171s-6.6-19.7,13.5-25.7
	l135-58.6c0,0,16.8-7.8,19.9,6.5c3.1,14.3,50.6,235.3,50.6,235.3s2.7,33.3-28.5,44.7c-31.2,11.4-51.1,5.4-59.3-17.4
	c-8.2-22.8,6.4-44.4,30.3-53c23.9-8.6,32.2-11.3,28-30.2c-4.1-18.9-22.8-102.9-22.8-102.9S1134.1,436.2,1111.7,448.7z"/>
<path class="st2" d="M384.8-24c0,0-22.8-0.2-20.3,16.3l136.9,201.8c0,0-86.6,35.4-52.7,88.3s123-24.4,95-71.3L439.8,52.6
	c0,0,59.6-24.6,94.7,20.8c35.1,45.3,29.1,82,29.1,82s19.2-49.4-25.1-114.7c0,0-23.1-25.8-95.9-27C442.6,13.6,412.3,16.2,384.8-24z"
	/>
<path class="st3" d="M231.8,80.5l-96.5-34.4c0,0-15-8.9-23.2,9.4S33.2,186.8,33.2,186.8s-20,33.9-60,12.9c0,0-33.8-10.5-21.3-49.3
	c0,0,16.6-33.4,49.4-17.6l28,9.8c0,0,12.1,2.1,16.5-8.2s84.5-146.6,84.5-146.6s8.2-18.3,26.4-9.4L291,25.1c0,0,17.1,5.4,9.9,17.6
	S182.9,242.9,182.9,242.9S163,268.3,133.4,256s-39.8-29.6-30.7-51.2s33.6-27.3,56.2-17.8s30.2,13,39.7-3.1c9.5-16.1,51.1-88,51.1-88
	S255.9,86.3,231.8,80.5z"/>
<path class="st4" d="M807.3,385.4c0,0-13.4-11.6-20.2-0.6l-21.2,188.1c0,0-69-22.9-75.6,25.4c-6.7,48.3,84.8,47.7,92,5.9L801,458.4
	c0,0,47.5,15.6,45.3,60c-2.2,44.4-24.2,63-24.2,63s36.3-19.4,43.1-80.3c0,0-0.6-26.8-42.9-64.4C822.4,436.8,803.2,423.1,807.3,385.4
	z"/>
<path class="st5" d="M452.7,420.4l-79.9,64.1c0,0-15.4,8.1-4.2,24.7c11.2,16.6,70.4,136,70.4,136s18.4,34.8-20.5,57.8
	c0,0-26.7,23.3-53.1-7.7c0,0-19.8-31.7,11-51.3l23.1-18.7c0,0,8.1-9.3,1.6-18.4s-80.5-148.9-80.5-148.9s-11.3-16.6,5.9-27.4
	L436.6,341c0,0,13.6-11.7,20.2,0.8s108.6,205.4,108.6,205.4s11.2,30.2-14.8,49s-46.1,18.4-59.7-0.7s-5.6-43,14.3-57.2
	c19.9-14.3,26.9-18.9,18.2-35.4c-8.8-16.5-48.1-89.7-48.1-89.7S470.3,402.9,452.7,420.4z"/>
<path class="st5" d="M1457,165.8l-92.8-43.6c0,0-14-10.3-24,7.1s-91.2,123-91.2,123s-23.2,31.8-61,7c0,0-32.6-13.7-16.4-51.1
	c0,0,19.8-31.7,50.9-12.7l27,12.5c0,0,11.9,3.2,17.2-6.6S1365,63.7,1365,63.7s9.9-17.4,27.2-6.8l129,59.5c0,0,16.4,7.1,8.1,18.5
	c-8.3,11.4-136.8,187.8-136.8,187.8s-22.2,23.4-50.5,8.3c-28.3-15.1-36.8-33.3-25.6-53.9c11.1-20.6,36.1-23.9,57.7-12.3
	c21.6,11.6,28.8,15.9,39.8,0.7c11-15.1,59.4-82.6,59.4-82.6S1480.4,173.9,1457,165.8z"/>
<path class="st6" d="M203.6,337.7c0,0-11.9-19.5-24.6-8.6l-99,222.9c0,0-75.9-54.8-102.8,1.9S63,645.3,88,596.8l79.6-171.9
	c0,0,52.3,37.6,32.4,91.3s-54.2,68-54.2,68s52.1-9.8,84.1-81.9c0,0,9.7-33.2-27.7-95.7C202.2,406.7,184,382.3,203.6,337.7z"/>
<path class="st3" d="M1041.5-21.1c0,0-21.3-8.3-24.8,8l55.8,237.4c0,0-93.6,2.2-80.8,63.6c12.8,61.5,123.6,21.2,114.2-32.7
	l-40.4-185.1c0,0,64.4-1.7,81,53.2s-2.1,87-2.1,87s35.6-39.3,17.5-116.1c0,0-12.3-32.3-79.9-59.5
	C1082.1,34.8,1052.9,26.4,1041.5-21.1z"/>
<path class="st7" d="M820.5,87.1l-108.4,27.5c0,0-19,1.1-15.3,22.6s8.3,166.9,8.3,166.9s2.4,42.9-46.6,48.1c0,0-37,11-49.2-31.7
	c0,0-5.3-40.4,34.1-45.9l31.4-8.1c0,0,12.3-5.5,9.9-17.5c-2.3-12-12.4-184.3-12.4-184.3s-3.7-21.5,18.3-24.5l150-39.2
	c0,0,18.8-5.4,19.6,10S874.8,264,874.8,264s-2.6,35.1-36.9,41.9c-34.3,6.8-54.1-2.6-59-27.7c-4.9-25.1,13.9-45.2,40.1-50.3
	s35.3-6.6,34.1-27c-1.2-20.4-7.1-110.8-7.1-110.8S845.9,77.7,820.5,87.1z"/>
</svg>
