<?xml version="1.0" encoding="utf-8"?>
<!-- Generator: Adobe Illustrator 21.1.0, SVG Export Plug-In . SVG Version: 6.00 Build 0)  -->
<svg version="1.1" id="Layer_1" xmlns="http://www.w3.org/2000/svg" xmlns:xlink="http://www.w3.org/1999/xlink" x="0px" y="0px"
	 viewBox="0 0 1530 672" style="enable-background:new 0 0 1530 672;" xml:space="preserve">
<style type="text/css">
	.st0{fill:#353C98;}
	.st1{fill:#FAC3B4;}
	.st2{fill:#EFE1B6;}
	.st3{fill:#DF4646;}
	.st4{fill:#A1CAD3;}
	.st5{fill:#BEE2CB;}
	.st6{fill:#FBC4B4;}
	.st7{fill:#363E97;}
</style>
<path class="st0" d="M195.5,378.9c0,0-10.5-20.3-23.9-10.3L57.2,583.9c0,0-71.8-60-102.7-5.3c-30.8,54.7,79,97.3,107.5,50.6
	l91.5-165.8c0,0,49.6,41.2,25.9,93.4s-58.9,64-58.9,64s52.6-6.1,89.7-75.8c0,0,12-32.4-20.9-97.4
	C189.3,447.6,172.8,422.1,195.5,378.9z"/>
<path class="st1" d="M802.3,92l-101.2,32.1c0,0-17.9,2.1-13.3,22.2c4.6,20.1,17.3,157.7,17.3,157.7s4.7,40.5-41.4,48.2
	c0,0-34.4,12.5-48.4-27.3c0,0-7.2-38,29.7-45.4l29.2-9.5c0,0,11.3-5.9,8.5-17.1c-2.9-11.2-22.2-173.9-22.2-173.9
	s-4.7-20.2,15.9-24.3L816.2,9.3c0,0,17.5-6.2,19.2,8.4c1.7,14.5,28.2,239,28.2,239s-0.5,33.4-32.6,41.8
	c-32.1,8.4-51.4,0.5-57.4-22.9c-6-23.5,10.6-43.6,35.2-49.9c24.6-6.3,33.1-8.2,30.7-27.4c-2.3-19.2-13-104.6-13-104.6
	S825.7,81.7,802.3,92z"/>
<path class="st2" d="M384.8-24c0,0-22.8-0.2-20.3,16.3l136.9,201.8c0,0-86.6,35.4-52.7,88.3s123-24.4,95-71.3L439.8,52.6
	c0,0,59.6-24.6,94.7,20.8c35.1,45.3,29.1,82,29.1,82s19.2-49.4-25.1-114.7c0,0-23.1-25.8-95.9-27C442.6,13.6,412.3,16.2,384.8-24z"
	/>
<path class="st3" d="M231.8,80.5l-96.5-34.4c0,0-15-8.9-23.2,9.4S33.2,186.8,33.2,186.8s-20,33.9-60,12.9c0,0-33.8-10.5-21.3-49.3
	c0,0,16.6-33.4,49.4-17.6l28,9.8c0,0,12.1,2.1,16.5-8.2s84.5-146.6,84.5-146.6s8.2-18.3,26.4-9.4L291,25.1c0,0,17.1,5.4,9.9,17.6
	s-118,200.2-118,200.2S163,268.3,133.4,256s-39.8-29.6-30.7-51.2s33.6-27.3,56.2-17.8s30.2,13,39.7-3.1s51.1-88,51.1-88
	S255.9,86.3,231.8,80.5z"/>
<path class="st4" d="M807.3,385.4c0,0-13.4-11.6-20.2-0.6l-21.2,188.1c0,0-69-22.9-75.6,25.4c-6.7,48.3,84.8,47.7,92,5.9L801,458.4
	c0,0,47.5,15.6,45.3,60s-24.2,63-24.2,63s36.3-19.4,43.1-80.3c0,0-0.6-26.8-42.9-64.4C822.4,436.8,803.2,423.1,807.3,385.4z"/>
<path class="st5" d="M452.7,420.4l-79.9,64.1c0,0-15.4,8.1-4.2,24.7c11.2,16.6,70.4,136,70.4,136s18.4,34.8-20.5,57.8
	c0,0-26.7,23.3-53.1-7.7c0,0-19.8-31.7,11-51.3l23.1-18.7c0,0,8.1-9.3,1.6-18.4S320.6,458,320.6,458s-11.3-16.6,5.9-27.4L436.6,341
	c0,0,13.6-11.7,20.2,0.8s108.6,205.4,108.6,205.4s11.2,30.2-14.8,49s-46.1,18.4-59.7-0.7s-5.6-43,14.3-57.2
	c19.9-14.3,26.9-18.9,18.2-35.4c-8.8-16.5-48.1-89.7-48.1-89.7S470.3,402.9,452.7,420.4z"/>
<path class="st5" d="M1457,165.8l-92.8-43.6c0,0-14-10.3-24,7.1s-91.2,123-91.2,123s-23.2,31.8-61,7c0,0-32.6-13.7-16.4-51.1
	c0,0,19.8-31.7,50.9-12.7l27,12.5c0,0,11.9,3.2,17.2-6.6S1365,63.7,1365,63.7s9.9-17.4,27.2-6.8l129,59.5c0,0,16.4,7.1,8.1,18.5
	s-136.8,187.8-136.8,187.8s-22.2,23.4-50.5,8.3s-36.8-33.3-25.6-53.9c11.1-20.6,36.1-23.9,57.7-12.3s28.8,15.9,39.8,0.7
	c11-15.1,59.4-82.6,59.4-82.6S1480.4,173.9,1457,165.8z"/>
<path class="st6" d="M1529.7,399.6c0,0-11.9-19.5-24.6-8.6l-99,222.9c0,0-75.9-54.8-102.8,1.9c-26.9,56.7,85.8,91.4,110.8,42.9
	l79.6-171.9c0,0,52.3,37.6,32.4,91.3s-54.2,68-54.2,68s52.1-9.8,84.1-81.9c0,0,9.7-33.2-27.7-95.7
	C1528.3,468.6,1510.1,444.2,1529.7,399.6z"/>
<path class="st3" d="M1041.5-21.1c0,0-21.3-8.3-24.8,8l55.8,237.4c0,0-93.6,2.2-80.8,63.6c12.8,61.5,123.6,21.2,114.2-32.7
	l-40.4-185.1c0,0,64.4-1.7,81,53.2s-2.1,87-2.1,87s35.6-39.3,17.5-116.1c0,0-12.3-32.3-79.9-59.5
	C1082.1,34.8,1052.9,26.4,1041.5-21.1z"/>
<path class="st7" d="M1132.7,445l-108.4,27.5c0,0-19,1.1-15.3,22.6c3.7,21.5,8.3,166.9,8.3,166.9s2.4,42.9-46.6,48.1
	c0,0-37,11-49.2-31.7c0,0-5.3-40.4,34.1-45.9l31.4-8.1c0,0,12.3-5.5,9.9-17.5c-2.3-12-12.4-184.3-12.4-184.3s-3.7-21.5,18.3-24.5
	l150-39.2c0,0,18.8-5.4,19.6,10c0.8,15.4,14.6,253,14.6,253s-2.6,35.1-36.9,41.9c-34.3,6.8-54.1-2.6-59-27.7
	c-4.9-25.1,13.9-45.2,40.1-50.3c26.2-5.1,35.3-6.6,34.1-27c-1.2-20.4-7.1-110.8-7.1-110.8S1158.1,435.6,1132.7,445z"/>
</svg>
