<?xml version="1.0" encoding="utf-8"?>
<!-- Generator: Adobe Illustrator 21.1.0, SVG Export Plug-In . SVG Version: 6.00 Build 0)  -->
<svg version="1.1" id="Layer_2" xmlns="http://www.w3.org/2000/svg" xmlns:xlink="http://www.w3.org/1999/xlink" x="0px" y="0px"
	 viewBox="0 0 500 562" style="enable-background:new 0 0 500 562;" xml:space="preserve">
<style type="text/css">
	.st0{fill:#CCCCCC;}
	.st1{fill:#FFFFFF;}
	.st2{fill:url(#SVGID_1_);}
	.st3{fill:#02B7CD;}
	.st4{fill:none;}
	.st5{font-family:'ArialMT';}
	.st6{font-size:16.6498px;}
	.st7{font-size:12.4873px;}
	.st8{fill:none;stroke:#808080;stroke-width:2;stroke-miterlimit:10;}
	.st9{fill:none;stroke:#000000;stroke-width:2;stroke-miterlimit:10;}
	.st10{fill:#E6E6E6;}
	.st11{fill:#999999;}
</style>
<g>
	<g>
		<path class="st0" d="M358.4,18.1H158.2c0,0-34.9,0-34.9,34.9s0,311.9,0,311.9s-3.6,26.8,26.8,26.8s208.2,0,208.2,0
			s30.8-3.6,30.8-30.8s0-306.1,0-306.1S393.2,18.1,358.4,18.1z"/>
		<path class="st1" d="M344.1,43.5H171.2c0,0-29.9,0-29.9,27.7s0,247.1,0,247.1s-3.1,21,22.8,21s180.1,0,180.1,0s26.4-3.1,26.4-24.1
			c0-21,0-242.2,0-242.2S374.5,43.5,344.1,43.5z"/>
		<circle class="st1" cx="256.1" cy="364.8" r="18.8"/>
	</g>
	<linearGradient id="SVGID_1_" gradientUnits="userSpaceOnUse" x1="201.1888" y1="129.7878" x2="311.3938" y2="129.7878">
		<stop  offset="0" style="stop-color:#D7B8F2"/>
		<stop  offset="1" style="stop-color:#C17FEF"/>
	</linearGradient>
	<path class="st2" d="M299.4,184.9h-86.2c-6.6,0-12-5.4-12-12V86.7c0-6.6,5.4-12,12-12h86.2c6.6,0,12,5.4,12,12v86.2
		C311.4,179.5,306,184.9,299.4,184.9z"/>
	<path class="st3" d="M284.4,88l-41.5,12.6c0,0-7.2,2.9-7.2,7.2c0,4.3,0,39.2,0,39.2s-0.3,5.2-5.2,5.2s-20.1,3.2-19.6,12.4
		c0.5,9.2,26.5,9.2,28.9-3.4v-43.3c0,0,0.3-3.9,5.6-5.6c5.4-1.7,39-12.5,39-12.5s3.5,0,3.5,3.5c0,3.5,0,36.6,0,36.6s0.5,3.3-4.1,4.1
		s-19.6,3.2-17.5,14c2.1,10.8,27.8,2.6,26.2-7.9v-58C292.5,92.2,291.7,88,284.4,88z"/>
	<rect x="205.5" y="214.1" class="st4" width="167.5" height="54"/>
	<text transform="matrix(1 0 0 1 205.4632 226.0132)" class="st5 st6">Let You Down</text>
	<rect x="246.2" y="234.7" class="st4" width="167.5" height="54"/>
	<text transform="matrix(1 0 0 1 246.2083 243.6826)" class="st5 st7">NF</text>
	<line class="st8" x1="159.3" y1="201.2" x2="352.1" y2="201.2"/>
	<line class="st9" x1="159.3" y1="305.3" x2="352.1" y2="305.3"/>
	<circle class="st10" cx="344.8" cy="305.3" r="9.4"/>
	<polygon points="248.4,264.6 248.4,284.5 264.2,274.6 	"/>
	<polygon class="st11" points="284.7,264.6 284.7,284.5 300.5,274.6 	"/>
	<polygon class="st11" points="226.8,264.6 226.8,284.5 210.9,274.6 	"/>
	<polygon class="st11" points="210.6,264.6 210.6,284.5 194.8,274.6 	"/>
	<polygon class="st11" points="300.5,264.6 300.5,284.5 316.4,274.6 	"/>
</g>
</svg>
