<?xml version="1.0" encoding="utf-8"?>
<!-- Generator: Adobe Illustrator 21.1.0, SVG Export Plug-In . SVG Version: 6.00 Build 0)  -->
<svg version="1.1" id="Layer_2" xmlns="http://www.w3.org/2000/svg" xmlns:xlink="http://www.w3.org/1999/xlink" x="0px" y="0px"
	 viewBox="0 0 64 65" style="enable-background:new 0 0 64 65;" xml:space="preserve">
<style type="text/css">
	.st0{fill:#02B7CD;}
	.st1{fill:#FFFFFF;}
	.st2{fill:none;stroke:#FFFFFF;stroke-width:4;stroke-miterlimit:10;}
</style>
<path class="st0" d="M52.9,1.6H10.1c0,0-9,0.5-9,9s0,44,0,44s1.4,8.8,8.8,8.8s43.4,0,43.4,0s9.6-0.6,9.6-9.6s0-42.2,0-42.2
	S62.8,1.6,52.9,1.6z"/>
<path class="st1" d="M21.8,11.1c0,0-10.3,0.4-10.3,9.9s0,20.7,0,20.7s0.4,9.7,9.7,9.7s22,0,22,0s8.5-1.4,8.5-8.5s0-22.8,0-22.8
	s0.1-9.2-9.2-9.2S21.8,11.1,21.8,11.1z"/>
<path class="st0" d="M40.5,15.1H22.1c0,0-6.5,0.6-6.5,6.5s0,18.9,0,18.9s0.2,6.7,6.7,6.7s18.2,0,18.2,0s7,0,7-7s0-18.9,0-18.9
	S47.4,15.1,40.5,15.1z"/>
<circle class="st2" cx="32" cy="32.8" r="9.8"/>
<circle class="st1" cx="41.8" cy="19.8" r="2.9"/>
</svg>
