<?xml version="1.0" encoding="utf-8"?>
<!-- Generator: Adobe Illustrator 21.1.0, SVG Export Plug-In . SVG Version: 6.00 Build 0)  -->
<svg version="1.1" id="offline" xmlns="http://www.w3.org/2000/svg" xmlns:xlink="http://www.w3.org/1999/xlink" x="0px" y="0px"
	 viewBox="0 0 96 96" style="enable-background:new 0 0 96 96;" xml:space="preserve">
<style type="text/css">
	.st0{fill:#70EA21;}
</style>
<g>
	<polygon class="st0" points="8.6,7.1 3.6,12.1 22.4,30.9 27.1,26.1 	"/>
	<polygon class="st0" points="27,11.8 21.8,7 3.8,26.4 8.7,31 	"/>
</g>
<path d="M66.2,79.2L50.2,95.1L34.5,79.3C34.5,79.3,47.9,64.3,66.2,79.2z"/>
<path d="M30.7,75.4c0,0,16.6-18,39.3,0l5.5-5.5c0,0-25.2-23.1-50.2,0L30.7,75.4z"/>
<path d="M20.8,65.5c0,0,26.5-29.2,59.1,0l5.2-5.2c0,0-31.4-34.4-69.7,0L20.8,65.5z"/>
<path d="M89.8,55.6c0,0-36.3-44.8-79,0l-5.7-5.7c0,0,41-52.9,90.3,0L89.8,55.6z"/>
</svg>
