<?xml version="1.0" encoding="utf-8"?>
<!-- Generator: Adobe Illustrator 21.1.0, SVG Export Plug-In . SVG Version: 6.00 Build 0)  -->
<svg version="1.1" id="Layer_1" xmlns="http://www.w3.org/2000/svg" xmlns:xlink="http://www.w3.org/1999/xlink" x="0px" y="0px"
	 viewBox="0 0 128 128" style="enable-background:new 0 0 128 128;" xml:space="preserve">
<style type="text/css">
	.st0{fill:#E6E6E6;}
	.st1{fill:#FFFFFF;}
</style>
<path class="st0" d="M82.8,118.2H43.6c-5.3,0-9.5-5.4-9.5-12V18.8c0-6.6,4.3-12,9.5-12h39.2c5.3,0,9.5,5.4,9.5,12v87.4
	C92.3,112.8,88,118.2,82.8,118.2z"/>
<path class="st1" d="M78.8,104.3H48c-5.6,0-10.1-5.4-10.1-12V24.8c0-6.6,4.5-12,10.1-12h30.8c5.6,0,10.1,5.4,10.1,12v67.5
	C88.9,98.9,84.3,104.3,78.8,104.3z"/>
<circle class="st1" cx="63.6" cy="110.9" r="4.5"/>
</svg>
