<?xml version="1.0" encoding="utf-8"?>
<!-- Generator: Adobe Illustrator 21.1.0, SVG Export Plug-In . SVG Version: 6.00 Build 0)  -->
<svg version="1.1" id="Layer_1" xmlns="http://www.w3.org/2000/svg" xmlns:xlink="http://www.w3.org/1999/xlink" x="0px" y="0px"
	 viewBox="0 0 1064 1200" style="enable-background:new 0 0 1064 1200;" xml:space="preserve">
<style type="text/css">
	.st0{fill:#FAC3B4;}
	.st1{fill:#384559;}
	.st2{fill:#DF4646;}
	.st3{fill:#BEE2CB;}
	.st4{fill:#363E97;}
	.st5{fill:#EFE1B6;}
	.st6{fill:#353C98;}
	.st7{fill:#A1CAD3;}
	.st8{fill:#FBC4B4;}
</style>
<path class="st0" d="M118.6,145.2l-97.7,41.5c0,0-17.6,3.8-11.1,23.4s32.1,155.3,32.1,155.3s8.5,39.9-36.7,51.9
	c0,0-33.1,15.7-50.8-22.6c0,0-10.8-37.1,25.3-48L8,334.6c0,0,10.7-6.9,6.8-17.8s-38.5-171-38.5-171S-30.3,126-10.2,120l135-58.6
	c0,0,16.8-7.8,19.9,6.5s50.6,235.3,50.6,235.3s2.7,33.3-28.5,44.7s-51.1,5.4-59.3-17.4s6.4-44.4,30.3-53c23.9-8.6,32.2-11.3,28-30.2
	c-4.1-18.9-22.8-102.9-22.8-102.9S141.1,132.7,118.6,145.2z"/>
<path class="st1" d="M978.8,107.3l-101.7-13c0,0-16.5-5.5-20.7,14.1c-4.1,19.6-49,145.1-49,145.1s-12.3,37.4-55.9,25.4
	c0,0-35.2-3-31.3-43.6c0,0,9.1-36.2,44.5-27.7l29.5,3.6c0,0,12.3-0.6,14.3-11.6c2-11,51.3-161.3,51.3-161.3s4.1-19.6,23.8-14.8
	l141.1,16.9c0,0,17.8,1.7,13.4,15.1s-72.5,220.8-72.5,220.8s-14,29.1-45.5,23.4s-45.2-20.4-41-43.4c4.3-23.1,27-33.9,51.1-29.4
	c24.1,4.4,32.3,6.2,38.1-11.5s31.1-96.8,31.1-96.8S1003.6,107.8,978.8,107.3z"/>
<path class="st2" d="M623.6,718.3l-99.3,25.2c0,0-17.4,1-14,20.7c3.3,19.7,7.6,153,7.6,153s2.2,39.3-42.7,44.1
	c0,0-33.9,10.1-45.1-29.1c0,0-4.8-37,31.3-42.1l28.8-7.5c0,0,11.2-5,9.1-16s-11.4-168.9-11.4-168.9s-3.4-19.7,16.7-22.5l137.5-35.9
	c0,0,17.2-5,18,9.1c0.8,14.1,13.5,232,13.5,232s-2.4,32.2-33.8,38.4c-31.4,6.3-49.5-2.4-54-25.4c-4.5-23,12.7-41.4,36.8-46.1
	s32.4-6,31.2-24.7c-1.1-18.7-6.5-101.5-6.5-101.5S646.8,709.7,623.6,718.3z"/>
<path class="st3" d="M1070.5,784.6l-79.9,64.1c0,0-15.4,8.1-4.2,24.7c11.2,16.6,70.4,136,70.4,136s18.4,34.8-20.5,57.8
	c0,0-26.7,23.3-53.1-7.7c0,0-19.8-31.7,11-51.3l23.1-18.7c0,0,8.1-9.3,1.6-18.4s-80.5-148.9-80.5-148.9s-11.3-16.6,5.9-27.4
	l110.1-89.8c0,0,13.6-11.7,20.2,0.8c6.6,12.5,108.6,205.4,108.6,205.4s11.2,30.2-14.8,49s-46.1,18.4-59.7-0.7
	c-13.6-19.1-5.6-43,14.3-57.2s26.9-18.9,18.2-35.4c-8.8-16.5-48.1-89.7-48.1-89.7S1088.1,767.1,1070.5,784.6z"/>
<path class="st4" d="M146.2,1127.7l-99.3,25.2c0,0-17.4,1-14,20.7c3.3,19.7,7.6,153,7.6,153s2.2,39.3-42.7,44.1
	c0,0-33.9,10.1-45.1-29.1c0,0-4.8-37,31.3-42.1l28.8-7.5c0,0,11.2-5,9.1-16s-11.4-168.9-11.4-168.9s-3.4-19.7,16.7-22.5l137.5-35.9
	c0,0,17.2-5,18,9.1c0.8,14.1,13.5,232,13.5,232s-2.4,32.2-33.8,38.4c-31.4,6.3-49.5-2.4-54-25.4c-4.5-23,12.7-41.4,36.8-46.1
	c24.1-4.7,32.4-6,31.2-24.7c-1.1-18.7-6.5-101.5-6.5-101.5S169.4,1119.1,146.2,1127.7z"/>
<path class="st5" d="M364.2,90.5c0,0-22.8-0.2-20.3,16.3l136.9,201.8c0,0-86.6,35.4-52.7,88.3s123-24.4,95-71.3L419.2,167.1
	c0,0,59.6-24.6,94.7,20.8c35.1,45.3,29.1,82,29.1,82s19.2-49.4-25.1-114.7c0,0-23.1-25.8-95.9-27C422,128.1,391.7,130.8,364.2,90.5z
	"/>
<path class="st6" d="M1005.6,411.7c0,0-12.7-19-24.9-7.6l-90.2,226.6c0,0-78-51.8-102.6,5.9S877,724.6,900.2,675L973,500.2
	c0,0,53.8,35.5,35.9,90c-17.8,54.5-51.5,70.1-51.5,70.1s51.7-11.8,80.8-85.1c0,0,8.4-33.5-31.4-94.5
	C1006.9,480.6,987.7,457.1,1005.6,411.7z"/>
<path class="st7" d="M184.2,569.6c0,0-17.9-14.2-26.1,0.3l-16.8,243.3c0,0-90.1-25.6-95.9,36.9s111.8,56.7,118.8,2.5l16.1-188.7
	c0,0,62.1,17.4,61.7,74.7c-0.4,57.3-27.7,82.5-27.7,82.5s45.6-27,51-105.7c0,0-2.3-34.5-58.8-80.5
	C206.5,634.9,181,618.3,184.2,569.6z"/>
<path class="st8" d="M566.8,1062.9c0,0-11.9-19.5-24.6-8.6l-99,222.9c0,0-75.9-54.8-102.8,1.9s85.7,91.5,110.8,42.9l79.6-171.9
	c0,0,52.3,37.6,32.4,91.3c-20,53.7-54.2,68-54.2,68s52.1-9.8,84.1-81.9c0,0,9.7-33.2-27.7-95.7
	C565.4,1131.9,547.1,1107.5,566.8,1062.9z"/>
<path class="st5" d="M796.3,920.2c0,0-20.7-9.7-25.3,6.4l40.1,240.5c0,0-93.5-4-84.7,58.2c8.8,62.2,121.9,29.2,116.1-25.2
	l-28.2-187.3c0,0,64.4,2.6,77.3,58.4c12.9,55.8-7.8,86.6-7.8,86.6S922,1121,909,1043.1c0,0-10.2-33-75.8-64.6
	C833.2,978.5,804.5,968.3,796.3,920.2z"/>
</svg>
