<?xml version="1.0" encoding="utf-8"?>
<!-- Generator: Adobe Illustrator 21.1.0, SVG Export Plug-In . SVG Version: 6.00 Build 0)  -->
<svg version="1.1" id="Layer_1" xmlns="http://www.w3.org/2000/svg" xmlns:xlink="http://www.w3.org/1999/xlink" x="0px" y="0px"
	 viewBox="0 0 1064 642" style="enable-background:new 0 0 1064 642;" xml:space="preserve">
<style type="text/css">
	.st0{fill:#BEE2CB;}
	.st1{fill:#EFE1B6;}
	.st2{fill:#A1CAD3;}
	.st3{fill:#BFE2CB;}
	.st4{fill:#363E97;}
	.st5{fill:#DF4646;}
</style>
<path class="st0" d="M320.2,0l-60.7,48.7c0,0-11.7,6.1-3.2,18.7c8.5,12.6,53.5,103.3,53.5,103.3s13.9,26.5-15.6,43.9
	c0,0-20.2,17.7-40.3-5.8c0,0-15-24,8.3-38.9l17.5-14.2c0,0,6.2-7,1.2-13.9c-4.9-6.9-61.1-113-61.1-113s-8.5-12.6,4.5-20.8l83.6-68.2
	c0,0,10.3-8.9,15.3,0.6s82.4,156,82.4,156s8.5,23-11.2,37.2s-35,14-45.3-0.5s-4.3-32.6,10.9-43.4s20.4-14.4,13.8-26.9
	S337.2-5.4,337.2-5.4S333.5-13.3,320.2,0z"/>
<path class="st1" d="M720.5,23.3L659.8,72c0,0-11.7,6.1-3.2,18.7S710.1,194,710.1,194s13.9,26.5-15.6,43.9c0,0-20.2,17.7-40.3-5.8
	c0,0-15-24,8.3-38.9L680,179c0,0,6.2-7,1.2-13.9c-4.9-6.9-61.1-113-61.1-113s-8.5-12.7,4.5-20.9L708.2-37c0,0,10.3-8.9,15.3,0.6
	s82.4,156,82.4,156s8.5,23-11.2,37.2s-35,14-45.3-0.5s-4.3-32.6,10.9-43.4s20.4-14.4,13.8-26.9s-36.5-68.1-36.5-68.1
	S733.9,10,720.5,23.3z"/>
<path class="st2" d="M174.3,173.8c0,0-11.1-13.8-19.8-4.2l-54,181.3c0,0-63.8-34.7-78.9,11.7s75,61.9,89.5,22l44.2-140.2
	c0,0,44,23.7,34,67.1c-10,43.3-35,57.7-35,57.7s39.1-12.7,56.6-71.4c0,0,4.2-26.5-30.8-70.9C180.1,227,163.6,210.1,174.3,173.8z"/>
<path class="st3" d="M974.7,66.2c0,0-11.1-13.8-19.8-4.2l-54,181.3c0,0-63.8-34.7-78.9,11.7s75,61.9,89.5,22l44.2-140.2
	c0,0,44,23.7,34,67.1s-35,57.7-35,57.7s39.1-12.7,56.6-71.4c0,0,4.2-26.5-30.8-70.9C980.4,119.4,964,102.5,974.7,66.2z"/>
<path class="st4" d="M317,424.1l-74.3,18.8c0,0-13,0.7-10.5,15.5s5.7,114.4,5.7,114.4s1.7,29.4-31.9,33c0,0-25.3,7.5-33.7-21.7
	c0,0-3.6-27.7,23.4-31.5l21.5-5.6c0,0,8.4-3.8,6.8-12s-8.5-126.2-8.5-126.2S213,394,228,392l102.7-27c0,0,12.8-3.7,13.5,6.8
	c0.6,10.6,10.1,173.4,10.1,173.4s-1.8,24.1-25.3,28.7s-37-1.8-40.4-19c-3.3-17.2,9.5-31,27.5-34.5s24.2-4.5,23.3-18.5
	c-0.8-14-4.9-75.9-4.9-75.9S334.4,417.7,317,424.1z"/>
<path class="st5" d="M940.2,421.2l-67.5,36.3c0,0-12.4,3.8-6.4,17.6c6,13.7,33.3,109.6,33.3,109.6s8.8,28.1-22.9,39.8
	c0,0-22.7,13.4-38-12.9c0,0-10.2-26,15-36.2l19.4-10.6c0,0,7.2-5.7,3.7-13.3c-3.5-7.6-38.9-120.4-38.9-120.4s-6-13.7,8-19.3
	l93.2-51.1c0,0,11.5-6.7,14.7,3.3c3.2,10.1,51.9,165.8,51.9,165.8s4.1,23.8-17.6,34c-21.7,10.3-36.3,7.2-43.8-8.6
	s1.7-32.4,18.3-40.1s22.4-10.2,18.1-23.6c-4.2-13.4-23.2-72.4-23.2-72.4S955.5,410.8,940.2,421.2z"/>
<path class="st2" d="M674.3,356.9c0,0-13.4-11.6-20.2-0.6l-21.2,188.1c0,0-69-22.9-75.6,25.4s84.8,47.7,92,5.9l18.8-145.8
	c0,0,47.5,15.6,45.3,60s-24.2,63-24.2,63s36.3-19.4,43.1-80.3c0,0-0.6-26.8-42.9-64.4C689.4,408.3,670.2,394.6,674.3,356.9z"/>
</svg>
