<?xml version="1.0" encoding="utf-8"?>
<!-- Generator: Adobe Illustrator 21.1.0, SVG Export Plug-In . SVG Version: 6.00 Build 0)  -->
<svg version="1.1" id="Layer_1" xmlns="http://www.w3.org/2000/svg" xmlns:xlink="http://www.w3.org/1999/xlink" x="0px" y="0px"
	 viewBox="0 0 128 128" style="enable-background:new 0 0 128 128;" xml:space="preserve">
<style type="text/css">
	.st0{fill:#C4C4C4;}
	.st1{fill:#FFFFFF;}
</style>
<path class="st0" d="M100.3,118.2h-71c-6.6,0-12-5.4-12-12V18.8c0-6.6,5.4-12,12-12h71c6.6,0,12,5.4,12,12v87.4
	C112.3,112.8,106.9,118.2,100.3,118.2z"/>
<path class="st1" d="M94.9,104.3H34.1c-6.6,0-12-5.4-12-12V23.4c0-6.6,5.4-12,12-12h60.7c6.6,0,12,5.4,12,12v68.9
	C106.9,98.9,101.5,104.3,94.9,104.3z"/>
<circle class="st1" cx="63.6" cy="110.9" r="4.5"/>
</svg>
