<?xml version="1.0" encoding="utf-8"?>
<!-- Generator: Adobe Illustrator 21.1.0, SVG Export Plug-In . SVG Version: 6.00 Build 0)  -->
<svg version="1.1" id="Layer_2" xmlns="http://www.w3.org/2000/svg" xmlns:xlink="http://www.w3.org/1999/xlink" x="0px" y="0px"
	 viewBox="0 0 64 65" style="enable-background:new 0 0 64 65;" xml:space="preserve">
<style type="text/css">
	.st0{fill:#02B7CD;}
	.st1{fill:#FFFFFF;}
</style>
<path class="st0" d="M52.9,1.5H10.1c0,0-9,0.5-9,9s0,44,0,44s1.4,8.8,8.8,8.8s43.4,0,43.4,0s9.6-0.6,9.6-9.6s0-42.2,0-42.2
	S62.8,1.5,52.9,1.5z"/>
<path class="st1" d="M44.9,19.1c0,0-11.9-7.5-13.5,7.2c0,0-10,0.1-16-7.8c0,0-3.7,6,2.2,10c0,0-1.9,0.3-3.4-0.7c0,0-0.8,5,6,7.6
	c0,0-1.1,0.6-3.1,0c0,0,1.2,5.3,6.7,5.4c0,0-3.2,3.9-11.1,3.5c0,0,12.2,7.9,25.7-1c0,0,8-4.3,8.9-19c0,0,2.7-1.6,3.7-3.7
	c0,0-3.1,1.3-4.3,1c0,0,2.8-1.8,3.2-4.1C50,17.6,46.6,19.5,44.9,19.1z"/>
</svg>
